<?xml version="1.0" standalone="no"?>
<!DOCTYPE svg PUBLIC "-//W3C//DTD SVG 20010904//EN"
 "http://www.w3.org/TR/2001/REC-SVG-20010904/DTD/svg10.dtd">
<svg version="1.0" xmlns="http://www.w3.org/2000/svg"
 width="1133.000000pt" height="1200.000000pt" viewBox="0 0 1133.000000 1200.000000"
 preserveAspectRatio="xMidYMid meet">

<g transform="translate(0.000000,1200.000000) scale(0.100000,-0.100000)"
fill="#000000" stroke="none">
<path d="M5565 11748 c-53 -28 -97 -61 -130 -97 -27 -29 -77 -79 -109 -110
-33 -31 -82 -80 -110 -110 -28 -30 -77 -79 -109 -110 -33 -31 -84 -83 -115
-115 -32 -33 -86 -87 -121 -120 -36 -34 -83 -81 -105 -106 -23 -24 -72 -74
-111 -111 -77 -74 -79 -77 -201 -199 -47 -47 -99 -98 -115 -115 -17 -16 -66
-66 -110 -110 -43 -44 -91 -91 -105 -105 -22 -22 -144 -143 -237 -237 -28 -29
-151 -151 -215 -215 -23 -22 -162 -162 -223 -223 -32 -33 -171 -171 -222 -222
-17 -18 -72 -73 -122 -122 -104 -104 -89 -89 -205 -206 -50 -49 -102 -102
-117 -116 -14 -14 -64 -64 -111 -111 -47 -47 -96 -96 -109 -109 -14 -13 -63
-62 -109 -109 -47 -47 -99 -99 -116 -116 -17 -17 -69 -69 -116 -116 -47 -47
-99 -99 -116 -116 -17 -17 -115 -117 -219 -221 -103 -105 -191 -191 -196 -191
-5 0 -34 -32 -65 -71 -30 -39 -84 -93 -119 -120 -35 -27 -87 -80 -115 -118
-29 -39 -77 -91 -107 -117 -30 -27 -79 -82 -107 -124 -29 -41 -80 -106 -113
-145 -34 -38 -100 -122 -148 -185 -48 -63 -107 -139 -131 -169 -28 -34 -56
-86 -76 -138 -21 -56 -53 -112 -97 -171 -85 -113 -95 -135 -131 -274 -34 -130
-53 -172 -122 -271 -57 -81 -63 -101 -95 -370 -50 -415 -100 -543 -225 -577
l-40 -11 2 -471 3 -471 40 -14 c118 -41 146 -123 220 -628 39 -270 50 -308
106 -395 59 -91 83 -144 119 -260 39 -127 47 -143 121 -245 31 -44 70 -111 85
-150 30 -78 57 -118 142 -216 31 -36 79 -106 106 -154 27 -48 79 -119 115
-159 36 -39 88 -101 115 -138 27 -37 70 -81 95 -99 25 -18 89 -76 142 -128
190 -191 289 -273 398 -331 72 -38 130 -79 189 -132 67 -62 98 -82 156 -104
100 -37 141 -59 217 -115 79 -59 123 -79 249 -114 88 -25 144 -51 291 -133 75
-43 132 -55 439 -97 272 -37 531 -83 616 -111 146 -47 537 -21 929 61 507 106
1016 106 1522 0 207 -44 265 -53 443 -70 236 -23 351 -20 499 15 186 43 369
75 653 114 139 19 278 42 308 51 30 10 93 41 140 70 85 53 132 73 292 120 49
14 108 40 137 60 28 19 73 50 101 69 27 19 87 48 132 66 114 42 120 46 196
112 37 33 110 86 163 119 53 33 127 87 165 121 38 33 102 85 141 115 40 29 96
82 124 116 28 34 81 86 117 115 36 29 79 71 96 95 16 23 66 80 111 127 56 60
95 113 129 178 29 55 83 132 131 189 64 74 89 114 115 177 18 44 49 105 69
134 81 117 102 161 146 291 34 103 60 159 105 231 34 52 67 118 75 145 8 28
23 129 35 225 36 298 80 511 121 591 25 50 86 98 132 106 l37 6 0 458 c0 455
0 459 -20 459 -32 0 -92 28 -123 58 -72 68 -103 187 -147 562 -25 215 -37 258
-95 340 -67 94 -82 126 -114 253 -34 131 -60 187 -126 272 -51 65 -85 126
-105 190 -21 66 -46 106 -109 179 -34 38 -85 106 -115 151 -30 44 -85 114
-122 155 -36 41 -84 102 -106 135 -43 66 -98 128 -136 153 -13 9 -53 51 -88
95 -35 43 -89 100 -120 125 -32 26 -79 75 -105 110 -26 34 -75 85 -110 112
-34 28 -85 81 -114 118 -29 37 -76 83 -105 102 -28 19 -76 67 -106 105 -30 39
-84 93 -120 122 -36 28 -87 80 -115 114 -27 34 -76 83 -108 108 -33 25 -83 75
-112 111 -29 36 -79 86 -111 112 -32 25 -80 73 -106 105 -26 33 -78 86 -117
119 -38 34 -90 85 -114 115 -25 30 -71 76 -104 103 -32 27 -82 76 -109 110
-28 33 -83 86 -122 117 -39 31 -92 82 -118 115 -26 32 -70 77 -98 99 -28 22
-78 75 -112 118 -33 42 -64 77 -69 77 -10 0 -346 332 -392 387 -18 22 -64 67
-102 100 -39 33 -90 85 -114 116 -25 31 -67 73 -94 94 -27 20 -76 68 -109 106
-33 38 -88 93 -122 123 -35 29 -86 81 -113 116 -27 35 -77 83 -110 107 -33 25
-78 69 -99 99 -22 29 -74 83 -116 118 -43 35 -95 88 -117 117 -22 30 -69 77
-105 106 -36 28 -88 80 -116 115 -27 34 -67 74 -88 88 -52 35 -158 88 -174 88
-7 0 -49 -19 -93 -42z m167 -2142 c39 -14 183 -140 299 -261 85 -89 99 -103
184 -184 39 -36 88 -86 110 -111 23 -25 70 -72 106 -105 36 -33 85 -82 110
-110 25 -27 77 -79 115 -115 38 -36 92 -90 119 -120 28 -30 75 -78 105 -105
30 -28 80 -77 110 -110 70 -76 175 -180 265 -265 38 -36 89 -87 115 -115 25
-27 90 -95 145 -150 55 -55 119 -120 142 -145 23 -25 105 -106 184 -180 78
-74 163 -157 188 -184 45 -48 259 -269 313 -323 16 -16 89 -86 164 -158 74
-71 150 -144 167 -162 157 -157 240 -248 279 -304 26 -36 67 -82 93 -103 26
-21 70 -75 99 -120 29 -44 81 -112 115 -151 73 -82 88 -108 130 -236 30 -92
49 -126 126 -232 53 -75 57 -92 111 -482 9 -66 29 -192 45 -280 37 -202 37
-278 -1 -484 -17 -90 -44 -266 -60 -391 -16 -125 -37 -246 -45 -270 -9 -24
-38 -75 -65 -112 -62 -84 -80 -121 -115 -228 -38 -116 -48 -133 -119 -209 -34
-36 -79 -95 -99 -130 -39 -65 -178 -224 -281 -321 -32 -30 -99 -94 -150 -141
-50 -47 -118 -100 -151 -118 -33 -17 -94 -61 -135 -96 -90 -79 -169 -120 -270
-141 -176 -37 -300 40 -300 185 0 106 79 303 159 396 58 67 79 117 111 260 35
160 57 226 96 290 74 120 85 144 99 217 27 143 69 766 63 938 -4 115 -5 122
-43 196 -29 58 -63 102 -130 170 -49 50 -143 150 -208 220 -159 174 -324 348
-427 453 -47 47 -111 118 -142 156 -83 103 -261 275 -285 275 -11 0 -26 -7
-33 -15 -13 -16 -13 -26 10 -225 6 -54 11 -303 12 -575 1 -638 -11 -761 -90
-913 -25 -48 -58 -112 -74 -142 -15 -30 -44 -117 -62 -192 -40 -157 -55 -191
-125 -272 -32 -37 -62 -88 -81 -135 -46 -116 -65 -150 -129 -229 -32 -41 -82
-117 -112 -169 -40 -71 -70 -110 -117 -152 -35 -31 -87 -87 -114 -126 -59 -82
-72 -94 -158 -142 -36 -20 -94 -57 -130 -83 -128 -93 -134 -95 -315 -95 -181
0 -188 2 -315 95 -36 26 -94 64 -130 84 -83 46 -97 58 -149 131 -24 33 -76 90
-116 127 -55 52 -85 90 -129 170 -32 57 -85 136 -118 176 -40 48 -73 103 -99
164 -44 102 -56 124 -109 188 -58 70 -80 120 -116 268 -22 90 -46 159 -69 202
-69 127 -105 206 -119 263 -30 117 -40 305 -41 787 0 404 3 496 18 614 10 76
16 149 13 162 -8 32 -41 39 -74 17 -35 -22 -228 -224 -267 -278 -16 -22 -70
-81 -119 -131 -98 -98 -243 -252 -432 -458 -66 -70 -160 -170 -209 -220 -68
-69 -100 -112 -130 -171 l-40 -79 1 -210 c1 -333 40 -808 74 -905 11 -31 35
-78 52 -106 57 -90 80 -147 110 -275 55 -230 62 -248 132 -333 46 -57 73 -102
95 -160 66 -172 76 -255 38 -322 -55 -97 -179 -126 -332 -78 -77 24 -113 45
-205 120 -47 38 -113 84 -145 102 -33 19 -101 73 -152 120 -50 47 -118 111
-150 141 -103 97 -252 268 -278 321 -14 27 -57 82 -95 122 -53 55 -77 89 -100
144 -16 39 -30 77 -30 83 0 30 -55 139 -104 206 -69 94 -81 132 -111 359 -13
99 -43 291 -66 427 l-42 247 46 278 c26 153 56 350 67 438 23 180 43 234 123
340 25 32 55 86 67 120 74 211 71 206 135 274 34 36 84 100 110 141 51 79 165
208 326 369 53 53 110 115 128 139 18 23 60 63 92 88 33 25 84 76 114 114 30
38 80 88 110 112 31 24 79 72 107 107 28 34 82 87 119 116 36 30 83 77 104
105 21 28 70 79 108 112 39 34 93 87 120 120 27 32 75 80 106 105 31 25 82 76
113 114 32 37 85 89 118 114 33 26 78 70 99 99 22 29 70 79 108 112 38 32 93
88 123 123 30 35 82 86 116 113 33 27 78 72 99 100 22 28 71 78 109 111 38 33
92 86 118 118 27 32 75 80 107 107 32 26 85 79 118 118 33 38 86 89 117 114
31 25 77 72 102 105 25 33 74 83 108 110 35 28 89 79 119 115 30 36 76 83 103
105 27 21 81 71 119 111 57 59 78 74 115 82 63 14 99 13 142 -2z"/>
</g>
</svg>
